<svg xmlns="http://www.w3.org/2000/svg" viewBox="0 0 35 35"><defs><style>.cls-1{fill:#fff;}</style></defs><title>icon-support-tab</title><g id="Layer_2" data-name="Layer 2"><g id="Layer_1-2" data-name="Layer 1"><path class="cls-1" d="M2.08,35A2.08,2.08,0,0,1,0,32.92V2.08A2.08,2.08,0,0,1,2.08,0H32.92A2.08,2.08,0,0,1,35,2.08V32.92A2.08,2.08,0,0,1,32.92,35ZM1.8,33.2H33.2V1.8H1.8Z"/><path class="cls-1" d="M13.63,20.39a4.83,4.83,0,0,1,0-5.78l-4-4a10.38,10.38,0,0,0,0,13.7Z"/><path class="cls-1" d="M20.39,21.37a4.83,4.83,0,0,1-5.78,0l-4,3.95a10.38,10.38,0,0,0,13.7,0Z"/><path class="cls-1" d="M14.61,13.63a4.83,4.83,0,0,1,5.78,0l4-4a10.38,10.38,0,0,0-13.7,0Z"/><path class="cls-1" d="M21.37,14.61a4.83,4.83,0,0,1,0,5.78l3.95,4a10.38,10.38,0,0,0,0-13.7Z"/></g></g></svg>