<svg xmlns="http://www.w3.org/2000/svg" viewBox="0 0 35 35"><defs><style>.cls-1{fill:#fff;}</style></defs><title>icon-phone-tab</title><g id="Layer_2" data-name="Layer 2"><g id="Layer_1-2" data-name="Layer 1"><path class="cls-1" d="M25.89,22.6l-2.71-2.71a1.42,1.42,0,0,0-2,0l-1.36,1.37-.27-.15a13.32,13.32,0,0,1-3.29-2.38,13.6,13.6,0,0,1-2.39-3.29l-.14-.26.92-.92.45-.45a1.42,1.42,0,0,0,0-2L12.42,9.13a1.41,1.41,0,0,0-2,0l-.76.76,0,0a4.16,4.16,0,0,0-.63,1.11,4.28,4.28,0,0,0-.28,1.12c-.36,3,1,5.69,4.68,9.37,5.09,5.1,9.2,4.71,9.38,4.69A4.67,4.67,0,0,0,24,26a4.49,4.49,0,0,0,1.11-.63v0l.78-.76A1.43,1.43,0,0,0,25.89,22.6Z"/><path class="cls-1" d="M2.08,35A2.08,2.08,0,0,1,0,32.92V2.08A2.08,2.08,0,0,1,2.08,0H32.92A2.08,2.08,0,0,1,35,2.08V32.92A2.08,2.08,0,0,1,32.92,35ZM1.8,33.2H33.2V1.8H1.8Z"/></g></g></svg>